<?xml version="1.0" standalone="no"?>
<!DOCTYPE svg PUBLIC "-//W3C//DTD SVG 20010904//EN"
 "http://www.w3.org/TR/2001/REC-SVG-20010904/DTD/svg10.dtd">
<svg version="1.0" xmlns="http://www.w3.org/2000/svg"
 width="218.000000pt" height="218.000000pt" viewBox="0 0 218.000000 218.000000"
 preserveAspectRatio="xMidYMid meet">
<metadata>
Created by potrace 1.11, written by Peter Selinger 2001-2013
</metadata>
<g transform="translate(0.000000,218.000000) scale(0.100000,-0.100000)"
fill="#000000" stroke="none">
<path d="M999 2116 c-2 -2 -26 -6 -54 -10 -245 -29 -525 -202 -680 -421 -104
-147 -184 -364 -189 -515 -1 -13 47 -15 363 -18 236 -1 367 1 371 8 3 5 5 49
5 97 -1 49 3 94 8 101 7 9 76 12 282 12 206 0 275 -3 282 -12 10 -14 12 -553
2 -563 -9 -8 -558 -9 -567 0 -4 3 -7 52 -7 108 l-1 102 -372 0 c-347 1 -372
-1 -372 -17 0 -9 9 -62 19 -116 80 -412 410 -737 828 -816 94 -18 279 -18 368
-1 271 53 486 185 647 399 134 179 206 388 208 613 1 80 -14 225 -25 242 -2 4
-6 18 -9 32 -15 83 -72 208 -142 314 -148 225 -383 382 -657 441 -65 14 -298
29 -308 20z"/>
</g>
</svg>
